<svg xmlns="http://www.w3.org/2000/svg" viewBox="0 0 1200 630">
  <defs>
    <linearGradient id="bg" x1="0%" y1="0%" x2="100%" y2="100%">
      <stop offset="0%" style="stop-color:#07C160"/>
      <stop offset="100%" style="stop-color:#1AAD19"/>
    </linearGradient>
    <filter id="shadow" x="-20%" y="-20%" width="140%" height="140%">
      <feDropShadow dx="0" dy="8" stdDeviation="16" flood-color="#000" flood-opacity="0.15"/>
    </filter>
  </defs>
  <rect width="1200" height="630" fill="url(#bg)"/>
  <g transform="translate(100, 100)">
    <rect width="1000" height="430" rx="24" fill="white" filter="url(#shadow)"/>
    <rect x="0" y="0" width="1000" height="8" rx="4" fill="url(#bg)"/>
    <g transform="translate(80, 60)">
      <rect x="0" y="0" width="80" height="80" rx="16" fill="#07C160"/>
      <rect x="16" y="16" width="48" height="48" rx="8" fill="white"/>
      <rect x="28" y="28" width="24" height="24" rx="4" fill="#07C160"/>
    </g>
    <text x="180" y="115" font-family="system-ui, sans-serif" font-size="52" font-weight="800" fill="#1a1a1a">企小帮</text>
    <text x="180" y="155" font-family="system-ui, sans-serif" font-size="22" fill="#666666">专注深圳企业财税服务</text>
    <line x1="80" y1="200" x2="200" y2="200" stroke="#07C160" stroke-width="3"/>
    <g transform="translate(80, 230)">
      <circle cx="20" cy="15" r="6" fill="#07C160"/>
      <text x="40" y="20" font-family="system-ui, sans-serif" font-size="20" fill="#444444">代理记账 · 税务申报</text>
    </g>
    <g transform="translate(80, 270)">
      <circle cx="20" cy="15" r="6" fill="#07C160"/>
      <text x="40" y="20" font-family="system-ui, sans-serif" font-size="20" fill="#444444">工商变更 · 公司注册</text>
    </g>
    <g transform="translate(80, 310)">
      <circle cx="20" cy="15" r="6" fill="#07C160"/>
      <text x="40" y="20" font-family="system-ui, sans-serif" font-size="20" fill="#444444">专业团队 · 合规保障</text>
    </g>
    <g transform="translate(700, 80)">
      <rect x="0" y="0" width="200" height="200" rx="20" fill="#f8f8f8" stroke="#e0e0e0" stroke-width="2"/>
      <rect x="30" y="30" width="70" height="70" rx="8" fill="#07C160"/>
      <rect x="100" y="30" width="70" height="70" rx="8" fill="#07C160"/>
      <rect x="30" y="100" width="70" height="70" rx="8" fill="#07C160"/>
      <rect x="100" y="100" width="70" height="70" rx="8" fill="#07C160"/>
      <rect x="45" y="45" width="40" height="40" rx="4" fill="white"/>
      <rect x="115" y="45" width="40" height="40" rx="4" fill="white"/>
      <rect x="45" y="115" width="40" height="40" rx="4" fill="white"/>
      <rect x="115" y="115" width="40" height="40" rx="4" fill="white"/>
      <rect x="55" y="55" width="20" height="20" rx="2" fill="#07C160"/>
      <rect x="125" y="55" width="20" height="20" rx="2" fill="#07C160"/>
      <rect x="55" y="125" width="20" height="20" rx="2" fill="#07C160"/>
      <rect x="125" y="125" width="20" height="20" rx="2" fill="#07C160"/>
    </g>
    <text x="800" y="320" font-family="system-ui, sans-serif" font-size="18" font-weight="600" fill="#07C160" text-anchor="middle">微信扫码咨询</text>
  </g>
</svg>